<svg xmlns="http://www.w3.org/2000/svg" width="760" height="384" viewBox="0 0 760 384" font-family="-apple-system,Segoe UI,Helvetica,Arial,sans-serif">
<rect x="0.5" y="0.5" width="759" height="383" rx="10" fill="#ffffff" stroke="#d0d7de"/>
<text x="96" y="34" font-size="19" font-weight="700" fill="#1f2328">metalbrew vs Homebrew — install time</text>
<text x="96" y="54" font-size="12.5" fill="#57606a">single-bottle packages · cold cache · median of 3 · lower is better</text>
<rect x="440" y="20" width="12" height="12" rx="2" fill="#8a8f98"/>
<text x="458" y="30" font-size="12.5" fill="#1f2328">Homebrew</text>
<rect x="540" y="20" width="12" height="12" rx="2" fill="#f7a41d"/>
<text x="558" y="30" font-size="12.5" fill="#1f2328">metalbrew</text>
<line x1="96.0" y1="78" x2="96.0" y2="342" stroke="#d0d7de" stroke-width="1"/>
<text x="96.0" y="358" font-size="11" fill="#57606a" text-anchor="middle">0s</text>
<line x1="195.0" y1="78" x2="195.0" y2="342" stroke="#d0d7de" stroke-width="1"/>
<text x="195.0" y="358" font-size="11" fill="#57606a" text-anchor="middle">1s</text>
<line x1="294.0" y1="78" x2="294.0" y2="342" stroke="#d0d7de" stroke-width="1"/>
<text x="294.0" y="358" font-size="11" fill="#57606a" text-anchor="middle">2s</text>
<line x1="393.0" y1="78" x2="393.0" y2="342" stroke="#d0d7de" stroke-width="1"/>
<text x="393.0" y="358" font-size="11" fill="#57606a" text-anchor="middle">3s</text>
<line x1="492.0" y1="78" x2="492.0" y2="342" stroke="#d0d7de" stroke-width="1"/>
<text x="492.0" y="358" font-size="11" fill="#57606a" text-anchor="middle">4s</text>
<line x1="591.0" y1="78" x2="591.0" y2="342" stroke="#d0d7de" stroke-width="1"/>
<text x="591.0" y="358" font-size="11" fill="#57606a" text-anchor="middle">5s</text>
<line x1="690.0" y1="78" x2="690.0" y2="342" stroke="#d0d7de" stroke-width="1"/>
<text x="690.0" y="358" font-size="11" fill="#57606a" text-anchor="middle">6s</text>
<text x="84" y="101.0" font-size="13" font-weight="600" fill="#1f2328" text-anchor="end">tokei</text>
<rect x="96" y="84.5" width="361.3" height="14" rx="2.5" fill="#8a8f98"/>
<text x="463.3" y="95.5" font-size="11.5" fill="#57606a">3.65s</text>
<rect x="96" y="101.5" width="66.3" height="14" rx="2.5" fill="#f7a41d"/>
<text x="168.3" y="112.5" font-size="11.5" fill="#1f2328" font-weight="600">0.67s  (5.4× faster)</text>
<text x="84" y="145.0" font-size="13" font-weight="600" fill="#1f2328" text-anchor="end">micro</text>
<rect x="96" y="128.5" width="396.0" height="14" rx="2.5" fill="#8a8f98"/>
<text x="498.0" y="139.5" font-size="11.5" fill="#57606a">4.00s</text>
<rect x="96" y="145.5" width="79.2" height="14" rx="2.5" fill="#f7a41d"/>
<text x="181.2" y="156.5" font-size="11.5" fill="#1f2328" font-weight="600">0.80s  (5.0× faster)</text>
<text x="84" y="189.0" font-size="13" font-weight="600" fill="#1f2328" text-anchor="end">gdu</text>
<rect x="96" y="172.5" width="448.5" height="14" rx="2.5" fill="#8a8f98"/>
<text x="550.5" y="183.5" font-size="11.5" fill="#57606a">4.53s</text>
<rect x="96" y="189.5" width="99.0" height="14" rx="2.5" fill="#f7a41d"/>
<text x="201.0" y="200.5" font-size="11.5" fill="#1f2328" font-weight="600">1.00s  (4.5× faster)</text>
<text x="84" y="233.0" font-size="13" font-weight="600" fill="#1f2328" text-anchor="end">neofetch</text>
<rect x="96" y="216.5" width="144.5" height="14" rx="2.5" fill="#8a8f98"/>
<text x="246.5" y="227.5" font-size="11.5" fill="#57606a">1.46s</text>
<rect x="96" y="233.5" width="18.8" height="14" rx="2.5" fill="#f7a41d"/>
<text x="120.8" y="244.5" font-size="11.5" fill="#1f2328" font-weight="600">0.19s  (7.7× faster)</text>
<text x="84" y="277.0" font-size="13" font-weight="600" fill="#1f2328" text-anchor="end">duf</text>
<rect x="96" y="260.5" width="420.8" height="14" rx="2.5" fill="#8a8f98"/>
<text x="522.8" y="271.5" font-size="11.5" fill="#57606a">4.25s</text>
<rect x="96" y="277.5" width="69.3" height="14" rx="2.5" fill="#f7a41d"/>
<text x="171.3" y="288.5" font-size="11.5" fill="#1f2328" font-weight="600">0.70s  (6.1× faster)</text>
<text x="84" y="321.0" font-size="13" font-weight="600" fill="#1f2328" text-anchor="end">procs</text>
<rect x="96" y="304.5" width="524.7" height="14" rx="2.5" fill="#8a8f98"/>
<text x="626.7" y="315.5" font-size="11.5" fill="#57606a">5.30s</text>
<rect x="96" y="321.5" width="93.1" height="14" rx="2.5" fill="#f7a41d"/>
<text x="195.1" y="332.5" font-size="11.5" fill="#1f2328" font-weight="600">0.94s  (5.6× faster)</text>
</svg>
